<svg xmlns="http://www.w3.org/2000/svg" fill="none" viewBox="-0.5 -0.5 48 48" id="Roll-Safe-Hand-Drawn--Streamline-Memes.svg" height="48" width="48"><desc>Roll Safe Hand Drawn Streamline Element: https://streamlinehq.com</desc><path fill="#000000" fill-rule="evenodd" d="M30.349309999999996 21.71541c-3.8681 -3.4032699999999996 -9.12834 2.1662299999999997 -4.641719999999999 2.47549 1.70187 0.1551 3.55884 -0.61852 4.641719999999999 -1.54677 0.30926 -0.1551 0 -0.6189899999999999 -0.30973 -0.30973 -1.8565 1.39261 -4.9505099999999995 1.2379799999999999 -5.26024 0.6189899999999999 -0.15463 -0.46436 2.78475 -2.9393799999999994 5.26024 -0.92825 0.1551 0.30926 0.46436 -0.1551 0.30973 -0.30973Z" clip-rule="evenodd" stroke-width="1"></path><path fill="#000000" fill-rule="evenodd" d="M26.70352 21.30134c-1.2361 0.61805 -0.30879 1.8541499999999997 0.46388999999999997 1.5448899999999999 0.9268399999999999 -0.30879 0.61805 -1.8536799999999998 -0.7726799999999999 -1.5448899999999999h0.30879Z" clip-rule="evenodd" stroke-width="1"></path><path fill="#000000" fill-rule="evenodd" d="M26.549359999999997 21.14671c-1.69952 0.61805 -0.61805 2.7809899999999996 0.77221 2.16294 1.39073 -0.61805 0.46388999999999997 -2.62636 -0.77221 -2.16294Zm0.15416 0.46341999999999994c-0.61805 0.46341999999999994 0 1.08147 0.30926 0.92731 0.46341999999999994 -0.1551 0.30879 -0.92731 -0.30879 -0.92731Z" clip-rule="evenodd" stroke-width="1"></path><path fill="#000000" fill-rule="evenodd" d="M39.32255 18.3112c-1.5472399999999997 -1.2375099999999999 -3.40374 -0.46388999999999997 -3.8681 0.7736199999999999 -0.46388999999999997 1.2379799999999999 0.30973 2.0116 1.39261 1.8565 0.7736199999999999 0 2.47549 -0.61852 2.78475 -1.7014 0 -0.30973 -0.30926 -0.46436 -0.46388999999999997 -0.1551 -0.1551 0.7736199999999999 -2.47549 1.2379799999999999 -2.9393799999999994 0.7736199999999999 -0.46436 -0.46388999999999997 0.92825 -2.63012 2.78475 -1.39214 0.30926 0.30926 0.61852 0 0.30926 -0.1551Z" clip-rule="evenodd" stroke-width="1"></path><path fill="#000000" fill-rule="evenodd" d="M37.30155 19.62955c0.6542399999999999 0.22512999999999997 0.88125 -0.64813 0.33746 -0.98136 -0.32524 -0.33135 -1.4292699999999998 0.75247 -0.33746 0.98136Z" clip-rule="evenodd" stroke-width="1"></path><path fill="#000000" fill-rule="evenodd" d="M37.75039999999999 18.32154c-0.2162 -0.22089999999999999 -0.76328 -0.11656 -1.2041399999999998 0.31631 -0.33087999999999995 0.3243 -0.22888999999999998 1.0903999999999998 0.5348599999999999 1.20696 1.3065999999999998 0.44931999999999994 1.5397199999999998 -1.07818 0.66975 -1.52327Zm-0.22230999999999998 0.43474999999999997c-0.21808 -0.00188 -0.44086 0.43287 -0.22230999999999998 0.43522 0.2162 0.22043 0.43898 -0.21479 0.22230999999999998 -0.43522Z" clip-rule="evenodd" stroke-width="1"></path><path fill="#000000" fill-rule="evenodd" d="M35.764179999999996 19.085289999999997c-0.92825 1.8565 0.1551 3.40374 1.39261 4.95098 0.15463 0.30926 0.61852 0 0.30926 -0.30926 -0.6189899999999999 -1.2379799999999999 -1.7014 -3.24911 -1.2375099999999999 -4.641719999999999 0 -0.15463 -0.46436 -0.30926 -0.46436 0Z" clip-rule="evenodd" stroke-width="1"></path><path fill="#000000" fill-rule="evenodd" d="M38.703559999999996 26.82102c0.92825 -0.15463 1.5472399999999997 -1.2375099999999999 0.92825 -2.1657599999999997 -0.30926 -0.46436 -1.7014 -1.70187 -1.8565 -1.0828799999999998 -0.15463 0.46388999999999997 0.7736199999999999 0.46388999999999997 1.39261 1.39214 0.46388999999999997 0.92825 -0.92825 1.39261 -0.46436 1.0828799999999998 -0.15463 0 -0.46388999999999997 0 -0.61852 0.30973 -0.30973 0.61852 -0.30973 0.92825 -0.92825 1.2375099999999999 -0.30973 0.1551 -0.46436 0 -0.7736199999999999 0 -1.2379799999999999 -0.30926 -2.78475 1.0828799999999998 -3.8681 0.1551 -0.7736199999999999 -0.6189899999999999 0.30973 -1.39261 -0.15463 -1.5472399999999997 -0.46388999999999997 -0.30973 -0.92825 1.0828799999999998 -0.46388999999999997 1.7014 0.46388999999999997 0.92872 1.8565 1.08335 3.09401 0.7736199999999999 1.2379799999999999 -0.30926 0.92825 -0.30926 1.5472399999999997 -0.30926 0.46388999999999997 0.1551 0.7736199999999999 0.1551 1.2375099999999999 -0.1551 0.6189899999999999 -0.30879 0.6189899999999999 -0.77315 0.92825 -1.39214Z" clip-rule="evenodd" stroke-width="1"></path><path fill="#000000" fill-rule="evenodd" d="M35.764179999999996 19.239919999999998c0.46388999999999997 -1.0828799999999998 1.7014 -2.78475 3.09401 -3.5583699999999996 0.30973 -0.1551 0.1551 -0.6189899999999999 -0.15463 -0.46436 -2.0111299999999996 0.7736199999999999 -3.09401 2.0116 -3.40374 3.8681 0 0.46388999999999997 0.46436 0.46388999999999997 0.46436 0.1551Z" clip-rule="evenodd" stroke-width="1"></path><path fill="#000000" fill-rule="evenodd" d="M30.8132 18.466299999999997c-2.9393799999999994 -0.77315 -5.4144 -0.46388999999999997 -7.2709 1.70187 -0.1551 0.1551 0.15416 0.6189899999999999 0.30879 0.30973 1.8565 -1.5472399999999997 4.641719999999999 -1.8565 6.96211 -1.70187 0.21338 0 0.31208 -0.22748 0 -0.30973Z" clip-rule="evenodd" stroke-width="1"></path><path fill="#000000" fill-rule="evenodd" d="M36.471059999999994 28.0966c-1.69952 0.7726799999999999 -3.7082999999999995 2.16294 -4.32588 2.4722 -0.61805 0.15463 -1.2361 0.30879 -1.8541499999999997 0.61805 -0.61805 0.46341999999999994 -0.15463 1.081 2.16294 0.46341999999999994 2.16341 -0.61805 3.7082999999999995 -2.00878 4.32635 -2.31757 0.7726799999999999 -0.30926 1.5448899999999999 -0.30879 2.3171 -0.46341999999999994 0.46388999999999997 -0.15463 0.7726799999999999 -0.61805 0.7726799999999999 -1.08147 0 -0.30926 -1.69905 -0.30926 -1.8536799999999998 -0.1551 -0.46341999999999994 0.30926 -1.08147 0.77315 -1.5453599999999998 0.46388999999999997Z" clip-rule="evenodd" stroke-width="1"></path><path fill="#000000" fill-rule="evenodd" d="M36.62569 27.9415c-0.30879 -0.30879 -3.39904 1.5453599999999998 -4.0170900000000005 1.85462 -0.7726799999999999 0.46341999999999994 -1.2361 0.46341999999999994 -2.00831 0.61758 -2.4722 0.92731 -0.46388999999999997 3.55367 5.09856 0 0.46341999999999994 -0.30879 0.77221 -0.61758 1.2361 -0.77221 0.61805 -0.30926 1.39026 -0.30926 2.16294 -0.46341999999999994 0.61805 -0.15463 1.081 -0.7726799999999999 0.9268399999999999 -1.39073 -0.15463 -0.46341999999999994 -0.61805 -0.46341999999999994 -1.08147 -0.46341999999999994 -0.30879 0 -0.7726799999999999 0 -1.2361 0.15463 -0.30879 0.15416 -0.61805 0.61805 -1.081 0.46341999999999994Zm-6.025399999999999 3.55414c-0.1551 0 -0.1551 0 0 0Zm8.96102 -3.55367c-0.30879 0 -1.2361 -0.15463 -1.5448899999999999 0 -0.61805 0.15463 -0.92731 0.61805 -1.5453599999999998 0.46341999999999994 -0.30879 0 -3.24441 2.00831 -3.5531999999999995 2.00831 -1.08194 0.61805 -1.8541499999999997 0.61852 -2.4722 1.08194 2.00831 0.46341999999999994 5.71661 -2.31757 6.025399999999999 -2.4722 1.39073 -0.61805 3.0902499999999997 0 3.0902499999999997 -1.08147Zm-8.96102 3.5531999999999995c0 -0.15416 -0.1551 -0.15416 0 0 -0.1551 0 -0.1551 0 0 0Zm8.96102 -3.5531999999999995c0.15463 0.15463 0 0.15463 0 0 0.15463 0.15463 0.15463 0.15463 0 0Z" clip-rule="evenodd" stroke-width="1"></path><path fill="#000000" fill-rule="evenodd" d="M39.32255 28.98678c0.30926 1.5472399999999997 -2.78475 2.9393799999999994 -4.177359999999999 3.40374 -3.09401 0.92825 -4.641249999999999 0.30926 -5.41487 0.46388999999999997 -0.30926 0.1551 -0.7736199999999999 0.6189899999999999 -0.46388999999999997 0.7736199999999999 0.30926 0.1551 0.30926 -0.1551 0.61852 -0.30926 0.6189899999999999 -0.1551 2.3208599999999997 0.61852 5.41487 -0.1551 2.0116 -0.61852 4.95098 -2.1657599999999997 4.33199 -4.33199 0.1551 -0.30926 -0.30926 -0.15463 -0.30926 0.1551Z" clip-rule="evenodd" stroke-width="1"></path><path fill="#000000" fill-rule="evenodd" d="M38.703559999999996 31.771999999999995c0.1551 2.4750199999999998 -4.022259999999999 4.022259999999999 -6.34312 3.09401 -0.30926 -0.1551 -0.46388999999999997 0.30926 -0.1551 0.46388999999999997 2.93985 1.5472399999999997 7.581099999999999 -0.30926 6.96258 -3.5579 0 -0.46436 -0.46436 -0.30973 -0.46436 0Z" clip-rule="evenodd" stroke-width="1"></path><path fill="#000000" fill-rule="evenodd" d="M34.6813 7.327299999999999c2.78475 6.34312 5.25977 7.116739999999999 4.486619999999999 9.901489999999999 -0.1551 0.30973 0.30926 0.46436 0.46388999999999997 0.1551 0.92825 -2.78522 -1.0828799999999998 -4.7963499999999994 -3.40374 -8.50935 -1.2375099999999999 -1.8565 -1.0828799999999998 -2.0116 -1.39214 -1.8565 -0.1551 0 -0.1551 0.15463 -0.1551 0.30926Z" clip-rule="evenodd" stroke-width="1"></path><path fill="#000000" fill-rule="evenodd" d="M39.32255 21.56078c0.92825 2.0111299999999996 0.7736199999999999 4.486619999999999 0.15463 6.34312 -0.1551 0.30926 0.30926 0.46388999999999997 0.46388999999999997 0.15463 1.08335 -2.47549 1.39261 -4.486619999999999 -0.15463 -6.80748 -0.30926 -0.15463 -0.61852 0 -0.46388999999999997 0.30973Z" clip-rule="evenodd" stroke-width="1"></path><path fill="#000000" fill-rule="evenodd" d="M38.08504 33.78266c-1.2379799999999999 4.177359999999999 -3.0944799999999995 7.271839999999999 -7.426 6.80748 -3.40421 -0.30926 -5.649399999999999 -3.0686299999999997 -5.804499999999999 -2.29501 0 0.1551 0.0799 0.59314 0.23453 0.59314 1.0828799999999998 0.46436 1.8565 1.0828799999999998 2.9393799999999994 1.5472399999999997 2.3208599999999997 1.2375099999999999 5.87923 1.39261 8.04499 -0.92825 1.5472399999999997 -1.5472399999999997 2.1662299999999997 -3.713 2.63012 -5.87923 0 0 -0.46388999999999997 -0.15463 -0.61852 0.1551Z" clip-rule="evenodd" stroke-width="1"></path><path fill="#000000" fill-rule="evenodd" d="M30.039579999999997 27.903899999999997c0.1551 -0.1551 0.46436 -0.92825 0.6189899999999999 -1.0828799999999998 0.1551 -0.30973 0.46436 -0.7736199999999999 0.1551 -0.92872 -0.3102 -0.15463 -0.3102 0.1551 -0.6189899999999999 0.6189899999999999 -0.46436 0.6189899999999999 -0.92825 0.92825 -0.92825 1.2379799999999999 -0.1551 0.46388999999999997 0.46388999999999997 1.39214 -0.30973 2.78475 -0.6189899999999999 1.0828799999999998 -1.2375099999999999 1.0828799999999998 -1.0828799999999998 1.39214 0.30926 0.6189899999999999 3.09401 -1.8565 2.1657599999999997 -4.022259999999999Zm0 0c0 0.15463 -0.15463 0.15463 0 0Z" clip-rule="evenodd" stroke-width="1"></path><path fill="#000000" fill-rule="evenodd" d="M9.617609999999999 19.858909999999998c0.7736199999999999 -0.1551 1.5472399999999997 0 2.1657599999999997 0.30926 1.39261 -1.39214 3.0944799999999995 -3.24864 5.26024 -3.09401 0 -0.7736199999999999 0.1551 -1.0828799999999998 0.1551 -1.0828799999999998 0 -0.46436 -0.1551 -1.5472399999999997 -0.46436 -2.3208599999999997 -0.7736199999999999 -1.8565 -2.78475 -0.1551 -4.022259999999999 0 -2.78522 0.1551 -3.713 -2.1662299999999997 -2.3208599999999997 -1.70187 0.46388999999999997 0.1551 0.92825 0.46436 1.5472399999999997 0.46436 1.54677 0.15463 2.9393799999999994 -0.30973 3.713 -1.70187 2.63012 -4.33199 7.735729999999999 -3.0944799999999995 12.067719999999998 -3.24911 1.54677 -0.1551 4.17689 0 5.26024 -1.39261 0.77315 -1.0828799999999998 -0.30973 -2.47549 -1.08335 -3.24864 -3.24864 -2.93985 -13.45986 -4.48709 -19.33909 -0.1551 -5.26024 4.022729999999999 -6.34312 11.75846 -3.09401 17.32796v-0.15463h0.15463Z" clip-rule="evenodd" stroke-width="1"></path><path fill="#000000" fill-rule="evenodd" d="M9.77224 19.54965c-1.54677 0.61852 -2.0111299999999996 2.32039 -1.2375099999999999 3.24911 0.1551 0.30926 0.6189899999999999 0 0.46388999999999997 -0.30973 -0.30926 -0.92825 0.46436 -2.3208599999999997 0.92872 -2.63012 0.46388999999999997 0 0.15463 -0.46388999999999997 -0.1551 -0.30926Z" clip-rule="evenodd" stroke-width="1"></path><path fill="#000000" fill-rule="evenodd" d="M33.90768 40.43551c-0.1551 0.7736199999999999 -0.30973 1.2379799999999999 -0.1551 2.0116 0.46436 1.39214 1.39261 2.1657599999999997 2.1667 3.09401 0.15416 0.30973 0.61852 0 0.30879 -0.30926 -0.46388999999999997 -0.7736199999999999 -0.92825 -1.39261 -1.39214 -2.1662299999999997 -1.0828799999999998 -2.0111299999999996 -0.1551 -2.9393799999999994 -0.7736199999999999 -2.9393799999999994 0 0 -0.1551 0.1551 -0.1551 0.30926Z" clip-rule="evenodd" stroke-width="1"></path><path fill="#000000" fill-rule="evenodd" d="M35.29982 39.81699c2.3208599999999997 4.486619999999999 2.0116 4.486619999999999 2.3208599999999997 4.331519999999999 0.1551 0 0.1551 -0.15463 0.1551 -0.30926 -0.3102 -2.1657599999999997 -1.08335 -3.09401 -2.0116 -4.33199 -0.30926 -0.15463 -0.6189899999999999 0.1551 -0.46436 0.30973Z" clip-rule="evenodd" stroke-width="1"></path><path fill="#000000" fill-rule="evenodd" d="M37.156319999999994 38.11465c1.8565 1.70187 1.70187 1.70187 4.95098 2.3208599999999997 2.63012 0.46388999999999997 4.33199 1.39261 4.486619999999999 0.92825 0.1551 -0.30926 -0.30926 -0.46388999999999997 -1.7014 -0.92825 -4.95098 -1.8565 -4.0232 -0.30926 -7.426469999999999 -2.63012 -0.1551 -0.1551 -0.46436 0.1551 -0.30973 0.30926Z" clip-rule="evenodd" stroke-width="1"></path><path fill="#000000" fill-rule="evenodd" d="M44.73742 44.922129999999996c-1.39214 -1.39261 -2.1657599999999997 -2.63012 -4.022259999999999 -4.177359999999999 -0.92825 -0.7736199999999999 -2.63012 -2.0116 -3.40374 -2.9393799999999994 -0.1551 -0.30973 -0.6189899999999999 0 -0.30926 0.30926 0.92825 1.39261 6.497749999999999 6.34312 7.426 7.271369999999999 0.30926 0 0.6189899999999999 -0.30926 0.30926 -0.46388999999999997Z" clip-rule="evenodd" stroke-width="1"></path><path fill="#000000" fill-rule="evenodd" d="M13.021349999999998 44.922599999999996c-3.40374 -4.9505099999999995 -3.713 -5.10514 -5.10514 -10.52048 -0.1551 -0.77315 -0.6189899999999999 -1.7014 -0.6189899999999999 -2.4750199999999998 0 -1.8565 1.7014 -2.0116 1.7014 -8.354719999999999 0 -1.2375099999999999 2.0116 -2.0116 3.0944799999999995 -3.0944799999999995 0.7736199999999999 -0.92825 2.0116 -1.7014 3.0944799999999995 -2.4750199999999998 0.30926 -0.30973 0.7736199999999999 -0.7736199999999999 1.0828799999999998 -0.6189899999999999 1.0828799999999998 0 0.7736199999999999 3.0944799999999995 -2.3208599999999997 3.8681 -0.30926 0.15416 -0.30926 1.39214 -1.8565 2.62965 -0.30926 0.30973 0.30973 1.5472399999999997 -0.46388999999999997 4.177359999999999 0 0.30926 0.30926 0.46436 0.46388999999999997 0.1551 0.30973 -1.2379799999999999 0.46436 -2.47549 0.46436 -4.0232 0.7736199999999999 -0.61852 1.54677 -1.39214 1.8565 -2.4750199999999998 3.8681 -1.0828799999999998 4.022729999999999 -5.1056099999999995 2.0116 -5.1056099999999995 -0.61946 0 -1.2379799999999999 0.46436 -1.7023399999999997 0.7736199999999999 -1.0828799999999998 0.7736199999999999 -2.32039 1.39261 -3.24911 2.47549 -1.0828799999999998 1.2375099999999999 -3.24864 1.8565 -3.24864 3.713 0 6.34312 -1.8565 6.18849 -1.70187 8.354719999999999 0 0.92825 0.46388999999999997 1.8565 0.6189899999999999 2.63012 1.54677 5.878759999999999 2.0111299999999996 5.878759999999999 5.4144 10.67511 0.3102 0.15463 0.61946 -0.1551 0.46436 -0.30973Z" clip-rule="evenodd" stroke-width="1"></path><path fill="#000000" fill-rule="evenodd" d="M9.92734 30.534019999999995c0.46388999999999997 -1.2375099999999999 1.54677 -1.39214 2.4750199999999998 -2.0111299999999996 1.08335 -0.61852 1.8565 -1.39214 2.93985 -2.0116 1.7014 -0.9277799999999999 3.713 -0.9277799999999999 4.177359999999999 0.77409 0 0.15463 0.15463 0.15463 0.30926 0.15463 0.46388999999999997 -0.1551 0 -1.5472399999999997 -1.0828799999999998 -2.0116 -2.47549 -1.2375099999999999 -5.26024 1.39261 -6.652849999999999 2.3208599999999997 -1.2379799999999999 0.7736199999999999 -2.1657599999999997 1.0828799999999998 -2.63012 2.47549 -0.1551 0.46436 0.30926 0.6189899999999999 0.46436 0.30926Z" clip-rule="evenodd" stroke-width="1"></path><path fill="#000000" fill-rule="evenodd" d="M14.41396 30.534019999999995c0.7736199999999999 -1.0828799999999998 1.8565 -0.92825 2.9393799999999994 -1.39214 1.5472399999999997 -0.6189899999999999 4.7963499999999994 -3.713 5.5695 -0.6189899999999999 0.1551 0.30926 0 0.6189899999999999 0.30973 0.6189899999999999 0.6189899999999999 0 0.1551 -2.63012 -1.70187 -2.78475 -1.2375099999999999 0 -2.78475 0.92825 -3.713 1.54677 -1.5472399999999997 0.92825 -1.8565 0.7736199999999999 -2.63012 1.2379799999999999 -0.46436 0.30926 -1.39261 1.0828799999999998 -1.0828799999999998 1.39214 0 0.1551 0.15463 0.1551 0.30926 0Z" clip-rule="evenodd" stroke-width="1"></path><path fill="#000000" fill-rule="evenodd" d="M19.20984 31.926159999999996c0.46436 -0.7736199999999999 1.2375099999999999 -0.92825 2.0116 -1.2375099999999999 1.0828799999999998 -0.46436 3.24864 -3.40374 4.022259999999999 0.15463 0.46388999999999997 1.8565 0.1551 3.24911 -1.2375099999999999 4.79588 -0.1551 0.1551 0.15463 0.46436 0.30926 0.30973 1.5472399999999997 -1.5472399999999997 2.0116 -3.0944799999999995 1.7014 -5.26024 -0.15416 -1.2379799999999999 -0.9277799999999999 -2.3208599999999997 -2.0106599999999997 -2.3208599999999997 -0.92825 0 -1.70187 0.6189899999999999 -2.3208599999999997 1.2379799999999999 -1.0828799999999998 0.92825 -1.0828799999999998 0.61852 -2.0116 1.2375099999999999 -1.54677 1.0828799999999998 -0.77315 1.39261 -0.46388999999999997 1.0828799999999998Z" clip-rule="evenodd" stroke-width="1"></path><path fill="#000000" fill-rule="evenodd" d="M23.2321 34.40165c0 0.46436 -0.15416 0.7736199999999999 0 0.7736199999999999 0.3102 0.1551 0.61946 -0.77315 0.77409 -1.0828799999999998 0.30926 -0.92825 -0.30973 -2.1657599999999997 -0.6189899999999999 -2.0116 -0.30926 0.1551 0 0.77409 -0.1551 2.3208599999999997Z" clip-rule="evenodd" stroke-width="1"></path><path fill="#000000" fill-rule="evenodd" d="M24.31545 31.771999999999995c-0.32758999999999994 0.32711999999999997 -0.4911499999999999 0.7017100000000001 -0.6189899999999999 1.2375099999999999 -0.1551 0.30926 0.30973 0.46388999999999997 0.46436 0.15463 0.46388999999999997 -0.46436 0.61852 -0.6189899999999999 0.61852 -1.39261 0 -0.1551 -0.28763999999999995 -0.17625 -0.46388999999999997 0Z" clip-rule="evenodd" stroke-width="1"></path><path fill="#000000" fill-rule="evenodd" d="M23.69646 34.09239c0.27165999999999996 0.08365999999999998 0.5874999999999999 0.1551 0.7736199999999999 0.1551 0.30926 0 0.30926 -0.46436 0 -0.46436 -0.08647999999999999 -0.055459999999999995 -0.5184099999999999 -0.1551 -0.7736199999999999 -0.1551 -0.1551 0 -0.30926 0.46436 0 0.46436Z" clip-rule="evenodd" stroke-width="1"></path><path fill="#000000" fill-rule="evenodd" d="M23.077469999999998 35.02111c1.2379799999999999 2.4750199999999998 1.70187 6.34312 1.5472399999999997 8.50888 -0.1551 1.2379799999999999 -0.30926 1.39261 0 1.5472399999999997 0.7736199999999999 0.30926 0.7736199999999999 -4.022729999999999 0.6189899999999999 -5.26024 -0.1551 -1.7014 -0.6189899999999999 -3.24911 -1.8565 -5.1056099999999995 0 -0.15463 -0.46436 0 -0.30973 0.30973Z" clip-rule="evenodd" stroke-width="1"></path><path fill="#000000" fill-rule="evenodd" d="M7.915739999999999 36.25862c-1.0828799999999998 1.0828799999999998 -1.2375099999999999 1.8565 -2.0116 2.9393799999999994 -0.30879 0.6189899999999999 -3.24864 0.92825 -5.72413 5.8797 -0.15463 0.30879 0.30973 0.46388999999999997 0.46436 0.15416 0.6189899999999999 -1.0828799999999998 2.0116 -2.63012 3.713 -4.022259999999999 0.46436 -0.46436 2.0116 -0.92825 2.47549 -1.70187 0.46388999999999997 -1.08335 0.7736199999999999 -2.1662299999999997 1.5472399999999997 -3.0944799999999995 0.15463 0 -0.1551 -0.30926 -0.46436 -0.15463Z" clip-rule="evenodd" stroke-width="1"></path><path fill="#000000" fill-rule="evenodd" d="M13.021349999999998 23.262179999999997c0.7736199999999999 0.46388999999999997 1.39261 1.8565 1.39261 2.78475 0 0.30973 0.46388999999999997 0.46436 0.46388999999999997 0.1551 0.46436 -1.39261 -0.15463 -2.93985 -1.5472399999999997 -3.24911 -0.30926 -0.30973 -0.46388999999999997 0.15463 -0.30926 0.30926Z" clip-rule="evenodd" stroke-width="1"></path></svg>